<svg xmlns="http://www.w3.org/2000/svg" viewBox="0 0 1000 219.00201" width="1000" height="219.002" fill="none" role="img"><title>Proton Mail</title><path fill="#1b1340" d="M 0,0 H 1000 V 219.002 H 0 Z"/><defs><linearGradient id="logo-8-a" x1="10.507" y1="23.152" x2="1.116" y2="-9.469" gradientUnits="userSpaceOnUse" gradientTransform="matrix(7.0988,0,0,7.0988,25,-16.865)"><stop stop-color="#E3D9FF"/><stop offset="1" stop-color="#7341FF"/></linearGradient><linearGradient id="logo-8-c" x1="37.055" y1="43.522" x2="15.455" y2="-3.075" gradientUnits="userSpaceOnUse" gradientTransform="matrix(7.0988,0,0,7.0988,25,-16.865)"><stop offset=".271" stop-color="#E3D9FF"/><stop offset="1" stop-color="#7341FF"/></linearGradient><radialGradient id="logo-8-b" cx="0" cy="0" r="1" gradientTransform="matrix(198.68,0,0,187.27,194.62,75.96)" gradientUnits="userSpaceOnUse"><stop offset=".556" stop-color="#6D4AFF"/><stop offset=".994" stop-color="#AA8EFF"/></radialGradient></defs><g><path fill="url(#logo-8-a)" d="m 151.218,85.081 0.014,0.007 L 95.988,146.408 25,68.271 V 34.565 a 4.571,4.571 0 0 1 7.489,-3.513 l 78.762,65.401 a 20.551,20.551 0 0 0 26.265,0 z"/><path fill="url(#logo-8-b)" d="m 181.175,60.2 -29.957,24.881 0.014,0.007 -39.668,35.04 a 18.279,18.279 0 0 1 -23.781,0.354 L 25,68.271 V 168.436 a 20.558,20.558 0 0 0 20.565,20.565 H 181.175 l 14.197,-64.401 z"/><path fill="url(#logo-8-c)" d="m 181.175,60.228 v 128.773 h 22.027 c 11.358,0 20.565,-9.207 20.565,-20.558 V 34.565 a 4.571,4.571 0 0 0 -7.489,-3.513 z"/><path fill="#ffffff" d="m 294.757,134.056 v 26.01 h 18.173 v -24.874 a 9.1,9.1 0 0 1 9.079,-9.129 h 18.627 a 32.598,32.598 0 0 0 23.149,-9.661 33.023,33.023 0 0 0 9.59,-23.284 c 0,-8.717 -3.45,-17.108 -9.583,-23.291 A 32.676,32.676 0 0 0 340.616,60.185 H 294.757 v 32.512 h 18.173 v -15.326 h 26.478 c 4.117,0 8.05,1.646 10.96,4.571 a 15.617,15.617 0 0 1 0,22.034 c -2.91,2.924 -6.843,4.571 -10.96,4.571 h -19.237 a 25.208,25.208 0 0 0 -17.945,7.489 25.91,25.91 0 0 0 -5.508,8.277 25.13,25.13 0 0 0 -1.959,9.732 z m 81.424,26.01 v -39.633 c 0,-16.178 9.384,-29.041 28.182,-29.041 a 36.133,36.133 0 0 1 8.958,0.993 v 16.299 c -2.136,-0.141 -3.975,-0.141 -4.841,-0.141 -9.952,0 -14.233,4.585 -14.233,13.878 v 37.645 z m 42.55,-33.606 c 0,-19.891 14.936,-35.047 35.728,-35.047 20.792,0 35.728,15.156 35.728,35.047 0,19.891 -14.936,35.189 -35.728,35.189 -20.792,0 -35.728,-15.319 -35.728,-35.189 z m 53.653,0 c 0,-11.301 -7.553,-19.323 -17.924,-19.323 -10.399,0 -17.924,8 -17.924,19.323 0,11.443 7.546,19.323 17.924,19.323 10.392,0 17.924,-7.901 17.924,-19.323 z m 75.574,0 c 0,-19.891 14.936,-35.047 35.721,-35.047 20.771,0 35.707,15.156 35.707,35.047 0,19.891 -14.936,35.189 -35.707,35.189 -20.785,0 -35.721,-15.319 -35.721,-35.189 z m 53.624,0 c 0,-11.301 -7.546,-19.323 -17.917,-19.323 -10.378,0 -17.924,8 -17.924,19.323 0,11.443 7.546,19.323 17.924,19.323 10.371,0 17.924,-7.901 17.924,-19.323 z m 27.195,33.606 v -38.191 c 0,-17.74 11.237,-30.482 31.306,-30.482 19.919,0 31.164,12.721 31.164,30.482 v 38.191 h -17.924 v -36.772 c 0,-9.867 -4.422,-16.036 -13.239,-16.036 -8.823,0 -13.239,6.154 -13.239,16.036 v 36.772 z m -86.23,-52.787 h -19.5 v 25.044 c 0,8.731 3.123,12.728 12.089,12.728 0.851,0 2.981,0 5.693,-0.141 v 14.73 c -3.691,0.993 -6.964,1.583 -10.534,1.583 -15.078,0 -25.335,-9.157 -25.335,-26.464 v -13.878 h -12.193 v -14.453 h 3.031 a 9.228,9.228 0 0 0 3.471,-0.688 9.122,9.122 0 0 0 4.926,-4.955 9.086,9.086 0 0 0 0.681,-3.492 V 70.081 h 18.066 v 22.751 h 19.5 v 14.446 z"/><path fill="#ffffff" d="m 726.951,62.755 h 25.378 l 23.788,58.374 c 2.122,4.898 3.932,9.888 5.459,14.978 h 0.248 c 1.526,-5.089 3.343,-10.108 5.459,-14.978 l 23.788,-58.374 h 25.378 v 97.353 H 818.065 V 94.892 a 57.181,57.181 0 0 1 0.305,-6.431 h -0.305 c -0.567,2.292 -1.32,4.543 -2.278,6.715 l -26.358,63.797 H 774.179 l -26.436,-63.797 a 52.957,52.957 0 0 1 -2.427,-6.715 h -0.283 c 0.205,2.129 0.305,4.28 0.283,6.431 v 65.238 h -18.364 z m 172.382,33.123 c 5.324,2.782 9.725,7.049 12.678,12.259 a 36.701,36.701 0 0 1 4.628,18.556 v 33.407 h -16.1 l -1.142,-10.03 a 22.574,22.574 0 0 1 -8.887,8.589 26.862,26.862 0 0 1 -12.905,2.981 30.979,30.979 0 0 1 -16.263,-4.401 31.774,31.774 0 0 1 -11.698,-12.423 37.943,37.943 0 0 1 -4.28,-18.265 34.855,34.855 0 0 1 4.649,-17.846 33.378,33.378 0 0 1 12.834,-12.565 36.495,36.495 0 0 1 18.123,-4.564 38.27,38.27 0 0 1 18.364,4.301 z m -5.892,44.935 c 3.506,-3.322 5.238,-8.014 5.238,-14.268 a 19.493,19.493 0 0 0 -5.011,-13.899 17.427,17.427 0 0 0 -5.771,-3.975 17.363,17.363 0 0 0 -6.864,-1.405 17.498,17.498 0 0 0 -12.643,5.38 21.651,21.651 0 0 0 -5.054,13.885 c 0,5.075 1.796,9.988 5.054,13.885 a 16.803,16.803 0 0 0 12.678,5.359 17.307,17.307 0 0 0 12.373,-4.955 z m 33.123,-61.703 a 10.605,10.605 0 0 1 -2.527,-3.528 10.144,10.144 0 0 1 -0.851,-4.238 10.563,10.563 0 0 1 3.379,-7.851 11.478,11.478 0 0 1 16.107,0 10.648,10.648 0 0 1 2.505,3.563 c 0.567,1.362 0.873,2.804 0.851,4.287 a 10.35,10.35 0 0 1 -3.357,7.773 11.677,11.677 0 0 1 -16.107,0 z m 17.122,80.991 h -18.102 V 93.018 h 18.102 z m 31.313,0 h -18.123 V 62.755 H 975 v 97.353 z"/></g></svg>
