<?xml version="1.0" encoding="UTF-8"?>
<svg version="1.1" xmlns="http://www.w3.org/2000/svg" width="96" height="96">
<path d="M0 0 C1.35863401 0.96534522 2.70343137 1.95277149 4 3 C4.94875 2.21625 5.8975 1.4325 6.875 0.625 C12.52408232 -3.37263688 18.80362989 -4.64081535 25.625 -3.5 C31.43727951 -1.93078777 35.81145098 1.81145098 40 6 C40.763125 6.12375 41.52625 6.2475 42.3125 6.375 C45.81635256 7.18984943 47.45326654 8.46587413 50 11 C52.81962675 24.11739401 47.28738174 40.79182134 40.73046875 52.2109375 C37.19436377 57.45177629 33.07544036 61.0529746 27 63 C18.54751778 64.05402656 12.5943402 63.26439961 5.625 58.3125 C5.08875 57.879375 4.5525 57.44625 4 57 C3.05125 57.78375 2.1025 58.5675 1.125 59.375 C-3.91402386 62.94092212 -9.23820923 64.24546759 -15.39453125 63.84375 C-21.85788406 62.69862446 -26.70079697 60.11166179 -30.625 54.80078125 C-38.39640897 42.42481246 -44.63975124 25.77844987 -42 11 C-40.19140625 8.65625 -40.19140625 8.65625 -38 7 C-36.845 6.855625 -35.69 6.71125 -34.5 6.5625 C-30.04714703 5.84686292 -29.67206733 4.48178471 -27 1 C-18.0827283 -4.617325 -9.27883151 -5.61045626 0 0 Z M-14 16 C-17.80487504 20.03580677 -19.9151682 25.11977152 -20.26953125 30.6171875 C-19.7528103 35.18530026 -17.7977362 39.37516955 -15 43 C-12.9185774 43.83885846 -12.9185774 43.83885846 -11 44 C-7.16331198 38.07057306 -5.47688593 33.33782945 -6.44140625 26.32421875 C-7.35757004 22.51220856 -9.07973023 19.40693024 -11 16 C-11.99 16 -12.98 16 -14 16 Z M19 16 C14.28811274 25.444545 14.28811274 25.444545 14.69921875 35.6875 C16.06066146 39.48558988 16.06066146 39.48558988 18 43 C20.05876757 43.84840592 20.05876757 43.84840592 22 44 C27.37313441 36.45304443 27.37313441 36.45304443 28.71875 27.625 C27.92330779 24.71990673 26.79267662 22.68901492 25.125 20.1875 C24.61195312 19.39730469 24.09890625 18.60710938 23.5703125 17.79296875 C23.05210938 17.20128906 22.53390625 16.60960938 22 16 C21.01 16 20.02 16 19 16 Z " fill="#2559D6" transform="translate(44,18)"/>
<path d="M0 0 C3.88304948 3.91186617 4.61265209 7.04706841 5.3125 12.4375 C6.59601667 20.92192998 9.76248254 27.56983239 14 35 C15.95702552 34.77193712 15.95702552 34.77193712 18 34 C19.79271391 30.51202512 19.79271391 30.51202512 21 27 C21.99 27 22.98 27 24 27 C24.32613281 28.02480469 24.65226562 29.04960938 24.98828125 30.10546875 C25.42936247 31.46625123 25.87078693 32.82692249 26.3125 34.1875 C26.52583984 34.86103516 26.73917969 35.53457031 26.95898438 36.22851562 C27.99563039 39.40034298 28.94806466 41.92068262 30.79296875 44.73828125 C32 47 32 47 31.41796875 49.17578125 C28.2822568 53.209879 23.36776258 54.65184225 18.5625 55.875 C11.89430001 56.10897193 5.93867521 54.86232812 0.625 50.66796875 C-10.4775165 39.2718761 -14.21290185 21.05082666 -14.49609375 5.77734375 C-13.87884133 2.32170227 -12.69573953 1.17170792 -10 -1 C-6.31779211 -2.71836368 -3.58121208 -1.64138887 0 0 Z " fill="#34B1DE" transform="translate(16,26)"/>
<path d="M0 0 C3.99909271 4.44248892 7.39540696 10.20787148 8.08203125 16.2265625 C7.71210573 19.79480241 6.5665999 22.74164706 3.83203125 25.03515625 C-0.34724589 26.04627169 -2.81287939 26.50786184 -6.85546875 25.09765625 C-9.64229751 22.61210627 -11.20030806 19.95143706 -12.95703125 16.6796875 C-13.55644531 15.86564453 -13.55644531 15.86564453 -14.16796875 15.03515625 C-15.15796875 15.03515625 -16.14796875 15.03515625 -17.16796875 15.03515625 C-18.81796875 19.32515625 -20.46796875 23.61515625 -22.16796875 28.03515625 C-24.34937744 23.67233887 -25.77958287 19.2472649 -27.22460938 14.61132812 C-28.473247 10.7331608 -30.01934439 7.48294882 -32.16796875 4.03515625 C-32.23046875 1.97265625 -32.23046875 1.97265625 -31.16796875 0.03515625 C-21.94454582 -7.80475324 -9.29158095 -7.70198258 0 0 Z " fill="#2CBF6E" transform="translate(80.16796875,19.96484375)"/>
</svg>
